<svg width="281" height="74" viewBox="0 0 281 74" fill="none" xmlns="http://www.w3.org/2000/svg">
<path d="M54.8802 0.693359L59.1545 9.54156L68.7123 10.9605L61.7964 17.848L63.4283 27.5729L54.8802 22.9815L46.3311 27.5729L47.964 17.848L41.0479 10.9605L50.6056 9.54156L54.8802 0.693359Z" fill="#292524"/>
<path d="M77.8361 14.9105L80.0063 20.5424L84.8581 21.445L81.347 25.8291L82.1757 32.0179L77.8361 29.0962L73.4963 32.0179L74.325 25.8291L70.8139 21.445L75.6657 20.5424L77.8361 14.9105Z" fill="#292524"/>
<path d="M31.9241 14.9105L34.0937 20.5424L38.9465 21.445L35.4354 25.8291L36.2641 32.0179L31.9241 29.0962L27.5837 32.0179L28.4122 25.8291L24.9011 21.445L29.7539 20.5424L31.9241 14.9105Z" fill="#292524"/>
<path d="M74.481 67.2032C69.4646 67.4831 64.4319 67.719 59.4807 68.7671C60.8087 67.7592 62.2472 66.9591 63.75 66.2766C65.7726 65.363 67.8811 64.7211 70.054 64.2828C71.0446 64.079 71.3978 63.6281 71.3978 62.6009V44.9272H74.481V67.2032ZM58.4242 57.4543C58.2539 56.8776 58.4403 56.2443 58.9448 55.9266C60.4147 55.0087 61.9628 54.2617 63.6759 53.9287C64.525 53.7658 65.3175 54.4202 65.3175 55.2609C65.3175 55.8782 64.9074 56.4633 64.2859 56.5934C62.9332 56.8692 61.7231 57.4704 60.537 58.1444C60.2848 58.2873 59.9723 58.3763 59.6793 58.3883C59.1069 58.413 58.5832 57.9866 58.4242 57.4543ZM58.8227 48.2091C60.3169 47.1656 61.9702 46.4786 63.7704 46.1822C64.5017 46.0607 65.1554 46.5719 65.2971 47.2954C65.427 47.9491 65.017 48.6804 64.3265 48.8307C62.8762 49.1441 61.528 49.6712 60.2848 50.4879C60.1183 50.5975 59.8908 50.6102 59.8016 50.6383C59.0867 50.6469 58.5832 50.3014 58.3835 49.757C58.1806 49.1965 58.3355 48.5463 58.8227 48.2091ZM47.5869 50.4601C46.3525 49.6959 45.0567 49.1355 43.6268 48.8467C42.9159 48.7005 42.4815 47.9655 42.6154 47.2954C42.7614 46.5558 43.4357 46.0521 44.1915 46.1866C45.9544 46.499 47.5793 47.1613 49.0535 48.1809C49.4271 48.4324 49.6062 48.8264 49.6062 49.2697C49.6139 50.3217 48.4929 51.0205 47.5869 50.4601ZM49.3261 57.7914C48.9398 58.3806 48.1765 58.5717 47.5225 58.2346C46.8645 57.8965 46.2266 57.5111 45.5483 57.2189C44.971 56.9666 44.3579 56.7963 43.7448 56.634C43.0415 56.4472 42.5586 55.8825 42.595 55.2041C42.6401 54.4159 43.371 53.7826 44.1592 53.92C45.9264 54.2334 47.5183 54.9969 49.0127 55.963C49.6062 56.3494 49.7115 57.1942 49.3261 57.7914ZM33.4357 67.2071V45.0368H36.5146V62.4913C36.5146 63.6732 36.8151 64.0713 37.9725 64.3065C41.4946 65.0216 44.7926 66.2927 47.8027 68.2794C48.026 68.4299 48.2449 68.5877 48.4643 68.7381C43.5053 67.7269 38.4802 67.4754 33.4357 67.2071ZM75.5944 42.1735C74.4083 42.165 73.2305 42.1691 72.0484 42.1691C71.8412 42.165 71.634 42.1691 71.3978 42.1691V41.6133C71.3978 40.0364 71.4064 38.4603 71.3947 36.8844C71.3904 35.9018 70.7602 35.3042 69.7896 35.4263C68.5755 35.5768 67.353 35.7311 66.1622 36.0029C62.3199 36.8724 58.7573 38.367 55.6546 40.8447C55.0652 41.3159 54.5252 41.844 53.94 42.3646C53.6234 42.0641 53.3188 41.7507 52.9899 41.4663C48.7648 37.8313 43.7685 36.0557 38.3054 35.4384C37.0544 35.2967 36.5146 35.8367 36.5146 37.1076V41.8365C36.5146 41.9943 36.4943 42.1533 36.4943 42.1897C35.1375 42.1897 33.8501 42.2336 32.5662 42.1735C31.6965 42.1327 31.0633 42.3765 30.6736 43.1686V68.8196C30.7906 69.132 30.9613 69.3553 31.1728 69.5184C31.392 69.6193 31.6117 69.7213 31.831 69.8232C31.8428 69.8269 31.8557 69.8308 31.8675 69.8351C32.0421 69.8716 32.2293 69.8963 32.4279 69.9084C35.8276 70.1317 39.236 70.3224 42.6232 70.6513C46.2996 71.0051 49.8983 71.7439 53.327 73.1738C53.7575 73.3529 54.1754 73.349 54.6058 73.1738C55.0576 72.9913 55.5043 72.8045 55.9587 72.6459C60.1871 71.1633 64.5822 70.6115 69.0136 70.282C71.2357 70.1152 73.462 70.0219 75.6836 69.8838C76.7847 69.8148 77.2393 69.3188 77.2393 68.2347V43.8105C77.2393 42.6931 76.7279 42.1811 75.5944 42.1735Z" fill="#292524"/>
<path d="M76.5283 69.6927L89.6966 43.0828C89.6966 43.0828 86.5004 38.3304 79.0629 39.0693C78.2418 39.1463 77.369 39.2926 76.4425 39.5244C75.5171 39.2926 74.6433 39.1463 73.8187 39.0693C74.3714 38.2284 75.2198 37.1602 76.4425 36.1365C79.2089 33.8216 83.8884 31.7378 91.4269 32.9725C106.062 35.3654 107.57 16.4725 107.57 16.4725C107.57 16.4725 107.927 55.3255 76.5283 69.6927Z" fill="#E43A12"/>
<path d="M102.966 21.709C102.966 25.979 99.5038 29.441 95.2334 29.441C90.9632 29.441 87.5023 25.979 87.5023 21.709C87.5023 17.4388 90.9632 13.9777 95.2334 13.9777C99.5038 13.9777 102.966 17.4388 102.966 21.709Z" fill="#E43A12"/>
<path d="M18.6985 43.2333L31.8675 69.8351L31.8718 69.8425C31.8598 69.8351 31.8428 69.8308 31.831 69.8232C31.6117 69.7213 31.392 69.6193 31.1728 69.5184C0.477331 54.8993 0.826222 16.6238 0.826222 16.6238C0.826222 16.6238 2.33685 35.5156 16.9722 33.1235C24.5113 31.8883 29.191 33.976 31.9567 36.2875C33.1794 37.3114 34.0243 38.3795 34.5771 39.2204C33.7566 39.2976 32.883 39.4436 31.9567 39.6755C31.0311 39.4436 30.1573 39.2976 29.3329 39.2204C21.8953 38.4806 18.6985 43.2333 18.6985 43.2333Z" fill="#E43A12"/>
<path d="M5.43357 21.8594C5.43357 26.1296 8.89448 29.5913 13.1647 29.5913C17.4348 29.5913 20.8969 26.1296 20.8969 21.8594C20.8969 17.5891 17.4348 14.1277 13.1647 14.1277C8.89448 14.1277 5.43357 17.5891 5.43357 21.8594Z" fill="#E43A12"/>
<path d="M130.742 55.2006C129.185 55.2006 127.791 54.9479 126.558 54.4426C125.325 53.9373 124.34 53.1896 123.602 52.1991C122.864 51.2089 122.475 50.0164 122.435 48.6218H127.952C128.033 49.4101 128.306 50.0113 128.771 50.4256C129.236 50.84 129.842 51.0472 130.59 51.0472C131.358 51.0472 131.964 50.8704 132.409 50.5166C132.853 50.163 133.076 49.6727 133.076 49.0461C133.076 48.5208 132.899 48.0863 132.545 47.7427C132.192 47.3991 131.757 47.116 131.242 46.8938C130.726 46.6715 129.994 46.4188 129.044 46.1358C127.669 45.7114 126.548 45.2869 125.679 44.8625C124.809 44.438 124.062 43.8115 123.435 42.9828C122.809 42.1543 122.495 41.0729 122.495 39.7389C122.495 37.7582 123.213 36.207 124.648 35.0852C126.083 33.9637 127.952 33.4027 130.256 33.4027C132.601 33.4027 134.491 33.9637 135.926 35.0852C137.361 36.207 138.129 37.7684 138.23 39.7692H132.621C132.581 39.082 132.328 38.5415 131.863 38.1473C131.398 37.7533 130.802 37.5561 130.074 37.5561C129.448 37.5561 128.943 37.7229 128.559 38.0563C128.175 38.3899 127.983 38.87 127.983 39.4964C127.983 40.1836 128.306 40.7193 128.953 41.1033C129.6 41.4873 130.61 41.9016 131.985 42.3462C133.359 42.8111 134.475 43.2556 135.335 43.6802C136.193 44.1045 136.936 44.721 137.563 45.5296C138.189 46.3379 138.503 47.3789 138.503 48.6521C138.503 49.8648 138.194 50.9662 137.578 51.9566C136.961 52.9469 136.067 53.7352 134.895 54.3213C133.723 54.9076 132.338 55.2006 130.742 55.2006ZM140.655 46.4996C140.655 44.7614 140.984 43.2355 141.641 41.9218C142.297 40.608 143.192 39.5976 144.324 38.8902C145.455 38.1828 146.719 37.829 148.113 37.829C149.306 37.829 150.352 38.0716 151.251 38.5566C152.15 39.0417 152.843 39.6783 153.328 40.4666V38.0716H158.512V54.9883H153.328V52.5933C152.822 53.3814 152.12 54.0183 151.221 54.5032C150.321 54.9883 149.275 55.2308 148.083 55.2308C146.708 55.2308 145.455 54.8721 144.324 54.1547C143.192 53.4371 142.297 52.4165 141.641 51.0926C140.984 49.7688 140.655 48.2378 140.655 46.4996ZM153.328 46.53C153.328 45.2363 152.969 44.2157 152.251 43.4679C151.534 42.7201 150.66 42.3462 149.629 42.3462C148.598 42.3462 147.724 42.7151 147.006 43.4528C146.289 44.1904 145.93 45.2061 145.93 46.4996C145.93 47.793 146.289 48.8187 147.006 49.5767C147.724 50.3347 148.598 50.7136 149.629 50.7136C150.66 50.7136 151.534 50.3398 152.251 49.592C152.969 48.8441 153.328 47.8234 153.328 46.53ZM167.455 40.4666C167.94 39.6783 168.638 39.0417 169.547 38.5566C170.457 38.0716 171.498 37.829 172.67 37.829C174.064 37.829 175.328 38.1828 176.459 38.8902C177.591 39.5976 178.486 40.608 179.142 41.9218C179.799 43.2355 180.128 44.7614 180.128 46.4996C180.128 48.2378 179.799 49.7688 179.142 51.0926C178.486 52.4165 177.591 53.4371 176.459 54.1547C175.328 54.8721 174.064 55.2308 172.67 55.2308C171.477 55.2308 170.437 54.9934 169.547 54.5185C168.658 54.0434 167.961 53.4118 167.455 52.6237V54.9883H162.271V32.5538H167.455V40.4666ZM174.853 46.4996C174.853 45.2061 174.494 44.1904 173.776 43.4528C173.059 42.7151 172.175 42.3462 171.124 42.3462C170.093 42.3462 169.219 42.7201 168.501 43.4679C167.784 44.2157 167.425 45.2363 167.425 46.53C167.425 47.8234 167.784 48.8441 168.501 49.592C169.219 50.3398 170.093 50.7136 171.124 50.7136C172.154 50.7136 173.034 50.3347 173.761 49.5767C174.489 48.8187 174.853 47.793 174.853 46.4996ZM198.803 46.2571C198.803 46.742 198.773 47.2474 198.712 47.7729H186.979C187.06 48.8239 187.399 49.6273 187.995 50.1832C188.591 50.7389 189.324 51.0168 190.193 51.0168C191.486 51.0168 192.386 50.4711 192.891 49.3797H198.409C198.126 50.4913 197.616 51.4917 196.878 52.381C196.14 53.2703 195.215 53.9677 194.104 54.473C192.992 54.9781 191.749 55.2308 190.375 55.2308C188.718 55.2308 187.242 54.8772 185.949 54.1698C184.655 53.4624 183.645 52.4518 182.917 51.1381C182.189 49.8243 181.826 48.2884 181.826 46.53C181.826 44.7716 182.184 43.2355 182.902 41.9218C183.619 40.608 184.625 39.5976 185.918 38.8902C187.212 38.1828 188.697 37.829 190.375 37.829C192.012 37.829 193.467 38.1726 194.741 38.8598C196.014 39.547 197.009 40.5272 197.727 41.8005C198.444 43.0738 198.803 44.5593 198.803 46.2571ZM193.497 44.8929C193.497 44.0036 193.194 43.2962 192.588 42.7707C191.982 42.2452 191.224 41.9824 190.314 41.9824C189.445 41.9824 188.713 42.235 188.116 42.7403C187.52 43.2457 187.151 43.9631 187.01 44.8929H193.497ZM200.501 46.4996C200.501 44.7614 200.829 43.2355 201.486 41.9218C202.143 40.608 203.037 39.5976 204.169 38.8902C205.301 38.1828 206.564 37.829 207.959 37.829C209.07 37.829 210.086 38.0614 211.005 38.5264C211.925 38.9911 212.647 39.6177 213.173 40.4059V32.5538H218.357V54.9883H213.173V52.5629C212.688 53.3714 211.996 54.0183 211.096 54.5032C210.197 54.9883 209.151 55.2308 207.959 55.2308C206.564 55.2308 205.301 54.8721 204.169 54.1547C203.037 53.4371 202.143 52.4165 201.486 51.0926C200.829 49.7688 200.501 48.2378 200.501 46.4996ZM213.173 46.53C213.173 45.2363 212.814 44.2157 212.097 43.4679C211.379 42.7201 210.505 42.3462 209.474 42.3462C208.444 42.3462 207.57 42.7151 206.852 43.4528C206.135 44.1904 205.776 45.2061 205.776 46.4996C205.776 47.793 206.135 48.8187 206.852 49.5767C207.57 50.3347 208.444 50.7136 209.474 50.7136C210.505 50.7136 211.379 50.3398 212.097 49.592C212.814 48.8441 213.173 47.8234 213.173 46.53ZM229.817 55.2308C228.16 55.2308 226.669 54.8772 225.345 54.1698C224.021 53.4624 222.981 52.4518 222.223 51.1381C221.465 49.8243 221.086 48.2884 221.086 46.53C221.086 44.7918 221.47 43.2607 222.238 41.9369C223.006 40.6131 224.057 39.5976 225.391 38.8902C226.725 38.1828 228.22 37.829 229.878 37.829C231.535 37.829 233.031 38.1828 234.365 38.8902C235.698 39.5976 236.749 40.6131 237.517 41.9369C238.286 43.2607 238.67 44.7918 238.67 46.53C238.67 48.2682 238.28 49.799 237.502 51.1228C236.724 52.4467 235.663 53.4624 234.319 54.1698C232.975 54.8772 231.474 55.2308 229.817 55.2308ZM229.817 50.7439C230.807 50.7439 231.651 50.3802 232.348 49.6526C233.046 48.925 233.394 47.884 233.394 46.53C233.394 45.1757 233.056 44.1349 232.379 43.4073C231.702 42.6798 230.868 42.316 229.878 42.316C228.867 42.316 228.028 42.6747 227.361 43.3921C226.694 44.1097 226.361 45.1556 226.361 46.53C226.361 47.884 226.689 48.925 227.346 49.6526C228.003 50.3802 228.827 50.7439 229.817 50.7439ZM246.612 40.891C247.219 39.9613 247.977 39.2287 248.886 38.693C249.796 38.1575 250.806 37.8897 251.918 37.8897V43.377H250.493C249.199 43.377 248.229 43.6549 247.583 44.2106C246.936 44.7665 246.612 45.7416 246.612 47.1362V54.9883H241.428V38.0716H246.612V40.891ZM257.011 36.3132C256.102 36.3132 255.359 36.0453 254.783 35.5098C254.207 34.9741 253.919 34.3122 253.919 33.5241C253.919 32.7155 254.207 32.0436 254.783 31.5079C255.359 30.9724 256.102 30.7046 257.011 30.7046C257.9 30.7046 258.633 30.9724 259.209 31.5079C259.785 32.0436 260.073 32.7155 260.073 33.5241C260.073 34.3122 259.785 34.9741 259.209 35.5098C258.633 36.0453 257.9 36.3132 257.011 36.3132ZM259.588 38.0716V54.9883H254.404V38.0716H259.588ZM262.317 46.4996C262.317 44.7614 262.645 43.2355 263.302 41.9218C263.959 40.608 264.853 39.5976 265.985 38.8902C267.117 38.1828 268.38 37.829 269.774 37.829C270.967 37.829 272.013 38.0716 272.912 38.5566C273.812 39.0417 274.504 39.6783 274.989 40.4666V38.0716H280.173V54.9883H274.989V52.5933C274.484 53.3814 273.781 54.0183 272.882 54.5032C271.983 54.9883 270.937 55.2308 269.744 55.2308C268.37 55.2308 267.117 54.8721 265.985 54.1547C264.853 53.4371 263.959 52.4165 263.302 51.0926C262.645 49.7688 262.317 48.2378 262.317 46.4996ZM274.989 46.53C274.989 45.2363 274.63 44.2157 273.913 43.4679C273.195 42.7201 272.321 42.3462 271.29 42.3462C270.26 42.3462 269.385 42.7151 268.668 43.4528C267.95 44.1904 267.592 45.2061 267.592 46.4996C267.592 47.793 267.95 48.8187 268.668 49.5767C269.385 50.3347 270.26 50.7136 271.29 50.7136C272.321 50.7136 273.195 50.3398 273.913 49.592C274.63 48.8441 274.989 47.8234 274.989 46.53Z" fill="#292524"/>
<path d="M123.676 19.9019V23.0811H127.142V24.1045H123.676V27.3794H127.552V28.4028H122.435V18.8785H127.552V19.9019H123.676ZM132.45 28.4982C131.822 28.4982 131.261 28.3869 130.765 28.164C130.269 27.9412 129.88 27.6319 129.598 27.2361C129.316 26.8404 129.171 26.3833 129.162 25.8648H130.485C130.531 26.3106 130.715 26.6857 131.038 26.9905C131.361 27.2953 131.831 27.4476 132.45 27.4476C133.041 27.4476 133.508 27.2998 133.849 27.0041C134.19 26.7085 134.36 26.3288 134.36 25.8648C134.36 25.5008 134.26 25.2053 134.06 24.9779C133.86 24.7503 133.61 24.5777 133.31 24.4593C133.01 24.3411 132.605 24.2137 132.095 24.0772C131.468 23.9136 130.965 23.7497 130.588 23.586C130.21 23.4224 129.887 23.1652 129.619 22.8151C129.35 22.4649 129.216 21.9941 129.216 21.4029C129.216 20.8843 129.348 20.4248 129.612 20.0246C129.876 19.6243 130.246 19.315 130.724 19.0969C131.202 18.8785 131.75 18.7693 132.368 18.7693C133.26 18.7693 133.99 18.9922 134.558 19.4379C135.127 19.8837 135.447 20.475 135.52 21.2118H134.156C134.11 20.8478 133.919 20.5274 133.583 20.2498C133.246 19.9725 132.8 19.8337 132.245 19.8337C131.727 19.8337 131.304 19.9677 130.977 20.2361C130.649 20.5046 130.485 20.8798 130.485 21.362C130.485 21.7075 130.583 21.9896 130.779 22.2079C130.974 22.4263 131.215 22.5923 131.502 22.706C131.788 22.8196 132.191 22.9492 132.709 23.0949C133.337 23.2678 133.842 23.4383 134.224 23.6064C134.606 23.7748 134.934 24.0341 135.206 24.3842C135.479 24.7345 135.616 25.2098 135.616 25.8102C135.616 26.2741 135.493 26.7108 135.247 27.1201C135.002 27.5296 134.638 27.8616 134.156 28.1162C133.674 28.371 133.105 28.4982 132.45 28.4982ZM136.98 23.6406C136.98 22.7129 137.19 21.878 137.608 21.1367C138.027 20.3954 138.597 19.8155 139.32 19.397C140.044 18.9785 140.847 18.7693 141.729 18.7693C142.766 18.7693 143.671 19.0195 144.444 19.5199C145.217 20.0201 145.781 20.7296 146.136 21.6485H144.649C144.385 21.0754 144.005 20.6342 143.509 20.3249C143.014 20.0156 142.42 19.8609 141.729 19.8609C141.065 19.8609 140.469 20.0156 139.941 20.3249C139.414 20.6342 139 21.073 138.7 21.6417C138.399 22.2101 138.249 22.8765 138.249 23.6406C138.249 24.3956 138.399 25.0575 138.7 25.6259C139 26.1945 139.414 26.6334 139.941 26.9427C140.469 27.252 141.065 27.4066 141.729 27.4066C142.42 27.4066 143.014 27.2543 143.509 26.9495C144.005 26.6447 144.385 26.2059 144.649 25.6328H146.136C145.781 26.5424 145.217 27.2451 144.444 27.741C143.671 28.2367 142.766 28.4847 141.729 28.4847C140.847 28.4847 140.044 28.2777 139.32 27.8637C138.597 27.45 138.027 26.8745 137.608 26.1377C137.19 25.4009 136.98 24.5685 136.98 23.6406ZM152.29 28.4982C151.408 28.4982 150.603 28.2913 149.875 27.8775C149.147 27.4635 148.572 26.8859 148.149 26.1446C147.726 25.4031 147.514 24.5685 147.514 23.6406C147.514 22.7129 147.726 21.878 148.149 21.1367C148.572 20.3954 149.147 19.8178 149.875 19.4038C150.603 18.9899 151.408 18.7829 152.29 18.7829C153.182 18.7829 153.991 18.9899 154.719 19.4038C155.447 19.8178 156.02 20.3931 156.438 21.1299C156.857 21.8667 157.066 22.7036 157.066 23.6406C157.066 24.5777 156.857 25.4144 156.438 26.1514C156.02 26.8882 155.447 27.4635 154.719 27.8775C153.991 28.2913 153.182 28.4982 152.29 28.4982ZM152.29 27.4204C152.954 27.4204 153.552 27.2657 154.085 26.9564C154.617 26.6471 155.035 26.2059 155.34 25.6328C155.645 25.0596 155.797 24.3956 155.797 23.6406C155.797 22.8765 155.645 22.2101 155.34 21.6417C155.035 21.073 154.619 20.6342 154.091 20.3249C153.564 20.0156 152.963 19.8609 152.29 19.8609C151.617 19.8609 151.017 20.0156 150.489 20.3249C149.961 20.6342 149.545 21.073 149.241 21.6417C148.936 22.2101 148.783 22.8765 148.783 23.6406C148.783 24.3956 148.936 25.0596 149.241 25.6328C149.545 26.2059 149.964 26.6471 150.496 26.9564C151.028 27.2657 151.626 27.4204 152.29 27.4204ZM159.945 27.3929H163.274V28.4028H158.703V18.8921H159.945V27.3929ZM170.22 26.2878H166.072L165.308 28.4028H163.998L167.436 18.9467H168.869L172.294 28.4028H170.984L170.22 26.2878ZM169.865 25.278L168.146 20.475L166.427 25.278H169.865Z" fill="#292524"/>
<path d="M177.95 23.0817H280.174V24.1856H177.95V23.0817Z" fill="#292524"/>
</svg>
