<svg width="280" height="73" viewBox="0 0 280 73" fill="none" xmlns="http://www.w3.org/2000/svg">
<path d="M54.0541 0L58.3285 8.8482L67.8863 10.2671L60.9703 17.1546L62.6023 26.8796L54.0541 22.2881L45.505 26.8796L47.138 17.1546L40.2218 10.2671L49.7796 8.8482L54.0541 0Z" fill="#292524"/>
<path d="M77.01 14.2171L79.1803 19.849L84.032 20.7516L80.5209 25.1358L81.3497 31.3245L77.01 28.4028L72.6702 31.3245L73.4989 25.1358L69.9878 20.7516L74.8396 19.849L77.01 14.2171Z" fill="#292524"/>
<path d="M31.098 14.2171L33.2676 19.849L38.1204 20.7516L34.6093 25.1358L35.438 31.3245L31.098 28.4028L26.7576 31.3245L27.5862 25.1358L24.0751 20.7516L28.9278 19.849L31.098 14.2171Z" fill="#292524"/>
<path d="M73.655 66.5098C68.6385 66.7897 63.6058 67.0257 58.6547 68.0737C59.9826 67.0658 61.4211 66.2657 62.9239 65.5832C64.9465 64.6696 67.055 64.0277 69.228 63.5895C70.2186 63.3856 70.5718 62.9348 70.5718 61.9075V44.2338H73.655V66.5098ZM57.5982 56.7609C57.4279 56.1843 57.6143 55.551 58.1188 55.2332C59.5887 54.3153 61.1367 53.5683 62.8498 53.2353C63.699 53.0724 64.4914 53.7269 64.4914 54.5676C64.4914 55.1848 64.0814 55.7699 63.4598 55.9C62.1072 56.1758 60.897 56.777 59.711 57.4511C59.4587 57.594 59.1463 57.6829 58.8532 57.6949C58.2809 57.7196 57.7572 57.2933 57.5982 56.7609ZM57.9967 47.5158C59.4909 46.4722 61.1442 45.7852 62.9443 45.4889C63.6756 45.3673 64.3293 45.8786 64.471 46.602C64.601 47.2557 64.1909 47.987 63.5004 48.1373C62.0501 48.4508 60.702 48.9778 59.4587 49.7946C59.2923 49.9041 59.0647 49.9169 58.9755 49.9449C58.2607 49.9535 57.7572 49.608 57.5574 49.0637C57.3546 48.5031 57.5094 47.8529 57.9967 47.5158ZM46.7609 49.7667C45.5264 49.0025 44.2306 48.4421 42.8007 48.1534C42.0898 48.0072 41.6555 47.2722 41.7893 46.602C41.9354 45.8625 42.6096 45.3587 43.3655 45.4932C45.1283 45.8056 46.7533 46.4679 48.2274 47.4876C48.601 47.7391 48.7802 48.133 48.7802 48.5764C48.7878 49.6284 47.6668 50.3271 46.7609 49.7667ZM48.5001 57.098C48.1138 57.6872 47.3505 57.8784 46.6964 57.5412C46.0384 57.2031 45.4006 56.8178 44.7222 56.5255C44.145 56.2732 43.5319 56.1029 42.9187 55.9406C42.2155 55.7538 41.7325 55.1891 41.769 54.5107C41.814 53.7226 42.545 53.0893 43.3331 53.2267C45.1003 53.5401 46.6923 54.3036 48.1867 55.2697C48.7802 55.656 48.8854 56.5008 48.5001 57.098ZM32.6097 66.5137V44.3434H35.6886V61.7979C35.6886 62.9799 35.9891 63.3779 37.1465 63.6132C40.6686 64.3282 43.9666 65.5993 46.9767 67.586C47.1999 67.7366 47.4189 67.8944 47.6382 68.0447C42.6792 67.0335 37.6542 66.782 32.6097 66.5137ZM74.7683 41.4801C73.5823 41.4717 72.4045 41.4758 71.2223 41.4758C71.0152 41.4717 70.808 41.4758 70.5718 41.4758V40.9199C70.5718 39.343 70.5804 37.7669 70.5686 36.191C70.5643 35.2084 69.9342 34.6108 68.9635 34.7329C67.7495 34.8834 66.5269 35.0377 65.3362 35.3096C61.4938 36.1791 57.9312 37.6736 54.8286 40.1514C54.2392 40.6226 53.6992 41.1506 53.1139 41.6712C52.7974 41.3707 52.4928 41.0573 52.1639 40.7729C47.9387 37.1379 42.9424 35.3623 37.4793 34.7451C36.2284 34.6034 35.6886 35.1433 35.6886 36.4143V41.1432C35.6886 41.301 35.6682 41.4599 35.6682 41.4964C34.3114 41.4964 33.024 41.5403 31.7402 41.4801C30.8705 41.4393 30.2372 41.6832 29.8475 42.4752V68.1263C29.9646 68.4387 30.1353 68.6619 30.3468 68.825C30.5659 68.926 30.7856 69.0279 31.005 69.1298C31.0167 69.1336 31.0297 69.1375 31.0414 69.1418C31.2161 69.1782 31.4033 69.2029 31.6018 69.2151C35.0016 69.4383 38.41 69.6291 41.7972 69.958C45.4735 70.3118 49.0722 71.0505 52.501 72.4804C52.9314 72.6595 53.3493 72.6556 53.7798 72.4804C54.2315 72.2979 54.6783 72.1111 55.1326 71.9525C59.3611 70.4699 63.7562 69.9181 68.1875 69.5887C70.4097 69.4219 72.636 69.3286 74.8575 69.1904C75.9587 69.1214 76.4132 68.6255 76.4132 67.5414V43.1172C76.4132 41.9997 75.9018 41.4878 74.7683 41.4801Z" fill="#292524"/>
<path d="M75.7023 68.9993L88.8705 42.3894C88.8705 42.3894 85.6744 37.637 78.2368 38.3759C77.4158 38.453 76.5429 38.5992 75.6164 38.8311C74.6911 38.5992 73.8173 38.453 72.9926 38.3759C73.5454 37.5351 74.3937 36.4668 75.6164 35.4431C78.3829 33.1282 83.0624 31.0445 90.6009 32.2791C105.236 34.672 106.744 15.7791 106.744 15.7791C106.744 15.7791 107.101 54.6321 75.7023 68.9993Z" fill="white"/>
<path d="M102.14 21.0156C102.14 25.2857 98.6778 28.7476 94.4074 28.7476C90.1371 28.7476 86.6762 25.2857 86.6762 21.0156C86.6762 16.7454 90.1371 13.2843 94.4074 13.2843C98.6778 13.2843 102.14 16.7454 102.14 21.0156Z" fill="white"/>
<path d="M17.8724 42.5399L31.0414 69.1418L31.0457 69.1492C31.0338 69.1417 31.0167 69.1375 31.005 69.1298C30.7856 69.0279 30.5659 68.926 30.3468 68.825C-0.348719 54.2059 0.000172369 15.9304 0.000172369 15.9304C0.000172369 15.9304 1.5108 34.8222 16.1462 32.4302C23.6852 31.1949 28.3649 33.2826 31.1306 35.5941C32.3533 36.6181 33.1983 37.6861 33.751 38.527C32.9305 38.6042 32.0569 38.7503 31.1306 38.9822C30.2051 38.7503 29.3312 38.6042 28.5068 38.527C21.0693 37.7873 17.8724 42.5399 17.8724 42.5399Z" fill="white"/>
<path d="M4.60752 21.166C4.60752 25.4363 8.06843 28.898 12.3387 28.898C16.6087 28.898 20.0708 25.4363 20.0708 21.166C20.0708 16.8958 16.6087 13.4343 12.3387 13.4343C8.06843 13.4343 4.60752 16.8958 4.60752 21.166Z" fill="white"/>
<path d="M129.915 54.5072C128.359 54.5072 126.965 54.2546 125.732 53.7493C124.499 53.2439 123.514 52.4962 122.776 51.5058C122.038 50.5155 121.649 49.323 121.609 47.9284H127.126C127.207 48.7168 127.48 49.3179 127.945 49.7323C128.41 50.1466 129.016 50.3538 129.764 50.3538C130.532 50.3538 131.138 50.177 131.583 49.8232C132.027 49.4696 132.25 48.9794 132.25 48.3527C132.25 47.8274 132.073 47.3929 131.719 47.0493C131.366 46.7057 130.931 46.4227 130.416 46.2004C129.9 45.9781 129.168 45.7255 128.218 45.4424C126.843 45.0181 125.722 44.5935 124.853 44.1692C123.983 43.7446 123.236 43.1182 122.609 42.2894C121.983 41.4609 121.669 40.3795 121.669 39.0455C121.669 37.0648 122.387 35.5136 123.822 34.3919C125.257 33.2703 127.126 32.7093 129.43 32.7093C131.775 32.7093 133.665 33.2703 135.1 34.3919C136.535 35.5136 137.303 37.075 137.404 39.0759H131.795C131.755 38.3887 131.502 37.8481 131.037 37.4539C130.572 37.0599 129.976 36.8628 129.248 36.8628C128.622 36.8628 128.117 37.0296 127.733 37.363C127.349 37.6966 127.157 38.1766 127.157 38.803C127.157 39.4903 127.48 40.026 128.127 40.4099C128.773 40.7939 129.784 41.2083 131.159 41.6528C132.533 42.1178 133.649 42.5623 134.509 42.9868C135.367 43.4112 136.11 44.0277 136.737 44.8362C137.363 45.6445 137.677 46.6855 137.677 47.9588C137.677 49.1715 137.368 50.2729 136.752 51.2633C136.135 52.2535 135.241 53.0419 134.069 53.6279C132.897 54.2142 131.512 54.5072 129.915 54.5072ZM139.829 45.8062C139.829 44.068 140.157 42.5421 140.814 41.2285C141.471 39.9146 142.366 38.9042 143.497 38.1968C144.629 37.4894 145.892 37.1356 147.287 37.1356C148.48 37.1356 149.525 37.3783 150.425 37.8632C151.324 38.3483 152.017 38.9849 152.501 39.7733V37.3783H157.686V54.2949H152.501V51.8999C151.996 52.6881 151.294 53.3249 150.395 53.8098C149.495 54.2949 148.449 54.5374 147.257 54.5374C145.882 54.5374 144.629 54.1787 143.497 53.4613C142.366 52.7437 141.471 51.7231 140.814 50.3993C140.157 49.0754 139.829 47.5444 139.829 45.8062ZM152.501 45.8366C152.501 44.5429 152.143 43.5223 151.425 42.7746C150.708 42.0268 149.834 41.6528 148.803 41.6528C147.772 41.6528 146.898 42.0217 146.18 42.7595C145.463 43.497 145.104 44.5128 145.104 45.8062C145.104 47.0997 145.463 48.1254 146.18 48.8833C146.898 49.6413 147.772 50.0202 148.803 50.0202C149.834 50.0202 150.708 49.6464 151.425 48.8987C152.143 48.1507 152.501 47.1301 152.501 45.8366ZM166.629 39.7733C167.114 38.9849 167.812 38.3483 168.721 37.8632C169.631 37.3783 170.671 37.1356 171.844 37.1356C173.238 37.1356 174.501 37.4894 175.633 38.1968C176.765 38.9042 177.66 39.9146 178.316 41.2285C178.973 42.5421 179.302 44.068 179.302 45.8062C179.302 47.5444 178.973 49.0754 178.316 50.3993C177.66 51.7231 176.765 52.7437 175.633 53.4613C174.501 54.1787 173.238 54.5374 171.844 54.5374C170.651 54.5374 169.61 54.3001 168.721 53.8251C167.832 53.35 167.134 52.7185 166.629 51.9303V54.2949H161.445V31.8605H166.629V39.7733ZM174.027 45.8062C174.027 44.5128 173.668 43.497 172.95 42.7595C172.233 42.0217 171.348 41.6528 170.298 41.6528C169.267 41.6528 168.393 42.0268 167.675 42.7746C166.958 43.5223 166.599 44.5429 166.599 45.8366C166.599 47.1301 166.958 48.1507 167.675 48.8987C168.393 49.6464 169.267 50.0202 170.298 50.0202C171.328 50.0202 172.208 49.6413 172.935 48.8833C173.663 48.1254 174.027 47.0997 174.027 45.8062ZM197.977 45.5638C197.977 46.0487 197.947 46.554 197.886 47.0795H186.153C186.234 48.1305 186.573 48.9339 187.169 49.4898C187.765 50.0455 188.498 50.3234 189.367 50.3234C190.66 50.3234 191.56 49.7778 192.065 48.6864H197.583C197.3 49.7979 196.79 50.7984 196.052 51.6876C195.314 52.5769 194.389 53.2743 193.278 53.7796C192.166 54.2848 190.923 54.5374 189.549 54.5374C187.892 54.5374 186.416 54.1838 185.123 53.4764C183.829 52.769 182.818 51.7584 182.091 50.4448C181.363 49.1309 181 47.595 181 45.8366C181 44.0782 181.358 42.5421 182.076 41.2285C182.793 39.9146 183.799 38.9042 185.092 38.1968C186.386 37.4894 187.871 37.1356 189.549 37.1356C191.186 37.1356 192.641 37.4792 193.915 38.1664C195.188 38.8536 196.183 39.8339 196.901 41.1071C197.618 42.3804 197.977 43.8659 197.977 45.5638ZM192.671 44.1996C192.671 43.3103 192.368 42.6029 191.762 42.0774C191.156 41.5519 190.398 41.289 189.488 41.289C188.619 41.289 187.886 41.5417 187.29 42.047C186.694 42.5523 186.325 43.2697 186.184 44.1996H192.671ZM199.675 45.8062C199.675 44.068 200.003 42.5421 200.66 41.2285C201.317 39.9146 202.211 38.9042 203.343 38.1968C204.475 37.4894 205.738 37.1356 207.133 37.1356C208.244 37.1356 209.26 37.3681 210.179 37.833C211.099 38.2977 211.821 38.9244 212.347 39.7125V31.8605H217.531V54.2949H212.347V51.8695C211.862 52.6781 211.17 53.3249 210.27 53.8098C209.371 54.2949 208.325 54.5374 207.133 54.5374C205.738 54.5374 204.475 54.1787 203.343 53.4613C202.211 52.7437 201.317 51.7231 200.66 50.3993C200.003 49.0754 199.675 47.5444 199.675 45.8062ZM212.347 45.8366C212.347 44.5429 211.988 43.5223 211.271 42.7746C210.553 42.0268 209.679 41.6528 208.648 41.6528C207.618 41.6528 206.743 42.0217 206.026 42.7595C205.308 43.497 204.95 44.5128 204.95 45.8062C204.95 47.0997 205.308 48.1254 206.026 48.8833C206.743 49.6413 207.618 50.0202 208.648 50.0202C209.679 50.0202 210.553 49.6464 211.271 48.8987C211.988 48.1507 212.347 47.1301 212.347 45.8366ZM228.991 54.5374C227.334 54.5374 225.843 54.1838 224.519 53.4764C223.195 52.769 222.155 51.7584 221.397 50.4448C220.639 49.1309 220.26 47.595 220.26 45.8366C220.26 44.0984 220.644 42.5674 221.412 41.2435C222.18 39.9197 223.231 38.9042 224.565 38.1968C225.899 37.4894 227.394 37.1356 229.052 37.1356C230.709 37.1356 232.205 37.4894 233.539 38.1968C234.872 38.9042 235.923 39.9197 236.691 41.2435C237.46 42.5674 237.843 44.0984 237.843 45.8366C237.843 47.5748 237.454 49.1056 236.676 50.4295C235.898 51.7533 234.837 52.769 233.493 53.4764C232.149 54.1838 230.648 54.5374 228.991 54.5374ZM228.991 50.0506C229.981 50.0506 230.825 49.6868 231.522 48.9592C232.22 48.2316 232.568 47.1906 232.568 45.8366C232.568 44.4824 232.23 43.4416 231.553 42.714C230.876 41.9864 230.042 41.6226 229.052 41.6226C228.041 41.6226 227.202 41.9813 226.535 42.6987C225.868 43.4163 225.535 44.4622 225.535 45.8366C225.535 47.1906 225.863 48.2316 226.52 48.9592C227.177 49.6868 228.001 50.0506 228.991 50.0506ZM245.786 40.1977C246.393 39.268 247.151 38.5353 248.06 37.9996C248.97 37.4641 249.98 37.1964 251.092 37.1964V42.6836H249.667C248.373 42.6836 247.403 42.9616 246.757 43.5172C246.11 44.0731 245.786 45.0483 245.786 46.4429V54.2949H240.602V37.3783H245.786V40.1977ZM256.185 35.6199C255.275 35.6199 254.533 35.3519 253.957 34.8164C253.381 34.2807 253.093 33.6188 253.093 32.8307C253.093 32.0222 253.381 31.3502 253.957 30.8145C254.533 30.279 255.275 30.0113 256.185 30.0113C257.074 30.0113 257.807 30.279 258.383 30.8145C258.959 31.3502 259.247 32.0222 259.247 32.8307C259.247 33.6188 258.959 34.2807 258.383 34.8164C257.807 35.3519 257.074 35.6199 256.185 35.6199ZM258.762 37.3783V54.2949H253.578V37.3783H258.762ZM261.491 45.8062C261.491 44.068 261.819 42.5421 262.476 41.2285C263.133 39.9146 264.027 38.9042 265.159 38.1968C266.291 37.4894 267.554 37.1356 268.948 37.1356C270.141 37.1356 271.187 37.3783 272.086 37.8632C272.986 38.3483 273.678 38.9849 274.163 39.7733V37.3783H279.347V54.2949H274.163V51.8999C273.658 52.6881 272.955 53.3249 272.056 53.8098C271.156 54.2949 270.111 54.5374 268.918 54.5374C267.544 54.5374 266.291 54.1787 265.159 53.4613C264.027 52.7437 263.133 51.7231 262.476 50.3993C261.819 49.0754 261.491 47.5444 261.491 45.8062ZM274.163 45.8366C274.163 44.5429 273.804 43.5223 273.087 42.7746C272.369 42.0268 271.495 41.6528 270.464 41.6528C269.434 41.6528 268.559 42.0217 267.842 42.7595C267.124 43.497 266.766 44.5128 266.766 45.8062C266.766 47.0997 267.124 48.1254 267.842 48.8833C268.559 49.6413 269.434 50.0202 270.464 50.0202C271.495 50.0202 272.369 49.6464 273.087 48.8987C273.804 48.1507 274.163 47.1301 274.163 45.8366Z" fill="#292524"/>
<path d="M122.85 19.2085V22.3878H126.316V23.4111H122.85V26.6861H126.726V27.7094H121.609V18.1852H126.726V19.2085H122.85ZM131.624 27.8049C130.996 27.8049 130.435 27.6935 129.939 27.4707C129.443 27.2478 129.054 26.9385 128.772 26.5428C128.49 26.147 128.345 25.6899 128.336 25.1715H129.659C129.705 25.6172 129.889 25.9924 130.212 26.2972C130.535 26.602 131.005 26.7542 131.624 26.7542C132.215 26.7542 132.682 26.6065 133.023 26.3107C133.364 26.0151 133.534 25.6354 133.534 25.1715C133.534 24.8075 133.434 24.5119 133.234 24.2845C133.034 24.057 132.784 23.8843 132.484 23.7659C132.183 23.6477 131.779 23.5203 131.269 23.3839C130.642 23.2202 130.139 23.0564 129.762 22.8927C129.384 22.729 129.061 22.4719 128.793 22.1218C128.524 21.7715 128.39 21.3007 128.39 20.7096C128.39 20.1909 128.522 19.7315 128.786 19.3312C129.05 18.931 129.42 18.6217 129.898 18.4035C130.375 18.1852 130.924 18.076 131.542 18.076C132.434 18.076 133.164 18.2989 133.732 18.7446C134.301 19.1903 134.621 19.7817 134.694 20.5185H133.33C133.284 20.1545 133.093 19.834 132.757 19.5564C132.42 19.2791 131.974 19.1403 131.419 19.1403C130.901 19.1403 130.478 19.2744 130.15 19.5427C129.823 19.8112 129.659 20.1864 129.659 20.6686C129.659 21.0142 129.757 21.2962 129.952 21.5146C130.148 21.7329 130.389 21.8989 130.676 22.0126C130.962 22.1263 131.365 22.2559 131.883 22.4015C132.511 22.5744 133.016 22.7449 133.398 22.9131C133.78 23.0815 134.107 23.3408 134.38 23.6908C134.653 24.0411 134.79 24.5164 134.79 25.1168C134.79 25.5808 134.667 26.0175 134.421 26.4267C134.176 26.8362 133.812 27.1682 133.33 27.4228C132.848 27.6777 132.279 27.8049 131.624 27.8049ZM136.154 22.9472C136.154 22.0195 136.364 21.1847 136.782 20.4434C137.2 19.7021 137.771 19.1221 138.494 18.7036C139.218 18.2851 140.02 18.076 140.903 18.076C141.94 18.076 142.845 18.3261 143.618 18.8265C144.391 19.3267 144.955 20.0363 145.31 20.9551H143.823C143.559 20.382 143.179 19.9408 142.683 19.6315C142.188 19.3222 141.594 19.1676 140.903 19.1676C140.239 19.1676 139.643 19.3222 139.115 19.6315C138.588 19.9408 138.174 20.3797 137.874 20.9483C137.573 21.5167 137.423 22.1832 137.423 22.9472C137.423 23.7022 137.573 24.3641 137.874 24.9325C138.174 25.5012 138.588 25.94 139.115 26.2493C139.643 26.5586 140.239 26.7133 140.903 26.7133C141.594 26.7133 142.188 26.561 142.683 26.2562C143.179 25.9514 143.559 25.5125 143.823 24.9394H145.31C144.955 25.8491 144.391 26.5518 143.618 27.0477C142.845 27.5434 141.94 27.7913 140.903 27.7913C140.02 27.7913 139.218 27.5843 138.494 27.1704C137.771 26.7566 137.2 26.1811 136.782 25.4443C136.364 24.7075 136.154 23.8751 136.154 22.9472ZM151.464 27.8049C150.582 27.8049 149.777 27.5979 149.049 27.1841C148.321 26.7701 147.746 26.1925 147.323 25.4512C146.9 24.7097 146.688 23.8751 146.688 22.9472C146.688 22.0195 146.9 21.1847 147.323 20.4434C147.746 19.7021 148.321 19.1244 149.049 18.7105C149.777 18.2965 150.582 18.0895 151.464 18.0895C152.356 18.0895 153.165 18.2965 153.893 18.7105C154.621 19.1244 155.194 19.6997 155.612 20.4365C156.031 21.1733 156.24 22.0103 156.24 22.9472C156.24 23.8843 156.031 24.7211 155.612 25.4581C155.194 26.1949 154.621 26.7701 153.893 27.1841C153.165 27.5979 152.356 27.8049 151.464 27.8049ZM151.464 26.727C152.128 26.727 152.726 26.5724 153.258 26.2631C153.791 25.9538 154.209 25.5125 154.514 24.9394C154.818 24.3663 154.971 23.7022 154.971 22.9472C154.971 22.1832 154.818 21.5167 154.514 20.9483C154.209 20.3797 153.793 19.9408 153.265 19.6315C152.738 19.3222 152.137 19.1676 151.464 19.1676C150.791 19.1676 150.191 19.3222 149.663 19.6315C149.135 19.9408 148.719 20.3797 148.415 20.9483C148.11 21.5167 147.957 22.1832 147.957 22.9472C147.957 23.7022 148.11 24.3663 148.415 24.9394C148.719 25.5125 149.138 25.9538 149.67 26.2631C150.202 26.5724 150.8 26.727 151.464 26.727ZM159.119 26.6996H162.448V27.7094H157.877V18.1987H159.119V26.6996ZM169.394 25.5945H165.246L164.482 27.7094H163.172L166.61 18.2534H168.043L171.468 27.7094H170.158L169.394 25.5945ZM169.039 24.5846L167.32 19.7817L165.601 24.5846H169.039Z" fill="#292524"/>
<path d="M177.124 22.3883H279.348V23.4922H177.124V22.3883Z" fill="#292524"/>
</svg>
